<?xml version="1.0" standalone="no"?>
<!DOCTYPE svg PUBLIC "-//W3C//DTD SVG 20010904//EN"
 "http://www.w3.org/TR/2001/REC-SVG-20010904/DTD/svg10.dtd">
<svg version="1.0" xmlns="http://www.w3.org/2000/svg"
 width="100.000000pt" height="99.000000pt" viewBox="0 0 100.000000 99.000000"
 preserveAspectRatio="xMidYMid meet">
<metadata>
Created by potrace 1.13, written by Peter Selinger 2001-2015
</metadata>
<g transform="translate(0.000000,99.000000) scale(0.100000,-0.100000)"
fill="#000000" stroke="none">
<path d="M125 898 c-71 -68 -93 -94 -83 -101 10 -7 9 -8 -3 -4 -37 12 -39 -7
-39 -405 l0 -388 393 0 392 0 108 108 107 107 0 388 0 387 -390 0 -389 0 -96
-92z m763 70 c-2 -7 8 -14 21 -16 18 -3 22 0 18 12 -5 12 0 16 19 16 18 0 23
-4 17 -13 -11 -18 -179 -177 -187 -177 -3 0 -6 7 -6 15 0 8 -8 15 -17 15 -12
1 6 23 52 65 38 35 67 66 64 69 -3 3 -135 6 -293 6 l-288 1 -72 -68 c-39 -37
-72 -71 -74 -75 -2 -5 7 -8 20 -8 13 0 143 0 290 -1 157 0 270 -4 273 -10 4
-5 -115 -9 -314 -9 -279 0 -321 2 -321 15 0 8 -7 15 -16 15 -10 0 14 28 56 67
54 50 79 67 97 65 14 -2 25 3 29 12 5 14 44 16 320 16 243 0 313 -3 312 -12z
m-366 -71 c108 -28 197 -56 198 -62 2 -22 -50 -14 -245 36 -164 42 -202 55
-193 66 15 19 24 18 240 -40z m-46 -273 c24 -17 74 -91 74 -111 0 -6 -13 -16
-29 -21 -28 -10 -31 -8 -50 24 -11 19 -32 39 -45 46 -77 35 -144 -127 -102
-248 21 -62 42 -84 81 -84 36 0 59 21 76 67 10 29 12 31 40 21 39 -14 43 -22
23 -60 -41 -80 -76 -107 -141 -108 -117 -1 -196 184 -148 346 16 55 54 112 88
131 32 18 103 16 133 -3z"/>
</g>
</svg>
